<svg xmlns="http://www.w3.org/2000/svg" xmlns:xlink="http://www.w3.org/1999/xlink" width="224.843" height="224.622" viewBox="0 0 224.843 224.622">
  <defs>
    <clipPath id="clip-path">
      <rect id="Rechteck_2" data-name="Rechteck 2" width="224.843" height="224.622" fill="#fff"/>
    </clipPath>
  </defs>
  <g id="Gruppe_4" data-name="Gruppe 4" clip-path="url(#clip-path)">
    <path id="Pfad_7" data-name="Pfad 7" d="M181.275,174.132a75.534,75.534,0,0,0,19.582-59.988A92.5,92.5,0,0,0,243.047,4.674a92.41,92.41,0,0,0-109.589,42.4,75.532,75.532,0,0,0-60.17,20.136c-.553.523-1.1,1.054-1.644,1.6-.45.45-.89.9-1.325,1.361a75.461,75.461,0,0,0-20.6,46.006,59.354,59.354,0,0,1,16.432-6.044,60.116,60.116,0,0,1,35.858,3.562l0,0a59.916,59.916,0,0,1,18.75,12.678l.085.085c.641.641,1.261,1.291,1.866,1.951a59.933,59.933,0,0,1,8,69.925,75.934,75.934,0,0,0,17.793-3.352,75.467,75.467,0,0,0,29.4-17.425c.423-.4.842-.811,1.258-1.228q1.08-1.08,2.109-2.194M228.208,19.817A73.943,73.943,0,0,1,196.29,95.428a73.23,73.23,0,0,1-13.368,6.95,74.157,74.157,0,0,1-41.14,3.865A74.2,74.2,0,0,1,145.6,65.215a73.006,73.006,0,0,1,7.013-13.5,73.931,73.931,0,0,1,75.592-31.893M85.544,94.251a75.627,75.627,0,0,0-13.675-.1A60.141,60.141,0,0,1,77.345,85.6c.261-.347.532-.69.805-1.03A61.48,61.48,0,0,1,88,74.79l0,0q2.051-1.623,4.2-3.036a60.513,60.513,0,0,1,34.6-9.931,92.972,92.972,0,0,0-3.65,47.082,74.906,74.906,0,0,0-10.168-6.443l0,0a74.856,74.856,0,0,0-23.9-7.773c-1.176-.173-2.352-.316-3.535-.435Zm77.391,76.377a59.861,59.861,0,0,1-10.207,6.4,75.276,75.276,0,0,0,.082-15.434l0,0c-.112-1.17-.255-2.334-.419-3.495l0,0a74.885,74.885,0,0,0-7.074-22.615l0,0a74.26,74.26,0,0,0-6.695-10.95,92.959,92.959,0,0,0,47.762-3.783,60.529,60.529,0,0,1-9.876,35.214q-1.359,2.07-2.905,4.048a61.4,61.4,0,0,1-9.831,9.97c-.274.219-.55.435-.827.651" transform="translate(-22.877 0)" fill="#fff"/>
    <path id="Pfad_8" data-name="Pfad 8" d="M100.374,255.061,30.757,324.678a7.528,7.528,0,0,1-10.586.066q-.182-.178-.363-.36l-.055-.054a7.5,7.5,0,0,1,.06-10.589l69.625-69.624a7.5,7.5,0,0,1,10.588-.061l.055.055c.121.12.24.242.36.364a7.529,7.529,0,0,1-.066,10.586" transform="translate(-8.097 -111.305)" fill="#fff"/>
    <path id="Pfad_9" data-name="Pfad 9" d="M51.8,238.81,13.21,277.4A7.728,7.728,0,0,1,.056,271.111c.009-.071.016-.141.025-.212a7.6,7.6,0,0,1,2.2-4.449l38.574-38.573a7.6,7.6,0,0,1,4.449-2.2l.211-.025A7.728,7.728,0,0,1,51.8,238.81" transform="translate(0 -103.805)" fill="#fff"/>
    <path id="Pfad_10" data-name="Pfad 10" d="M143.325,331.929l-37,37a7.747,7.747,0,0,1-4.339,2.172l-.216.032a7.671,7.671,0,0,1-6.508-13.02l37.244-37.243a7.671,7.671,0,0,1,13.02,6.508c-.011.072-.021.144-.032.216a7.75,7.75,0,0,1-2.171,4.339" transform="translate(-42.789 -146.594)" fill="#fff"/>
  </g>
</svg>
